<svg width="359" height="200" viewBox="0 0 359 200" fill="none" xmlns="http://www.w3.org/2000/svg">
<path d="M99.9983 200C44.7709 200 0.000393186 155.229 0.000185168 100.001C0.00018034 44.7723 44.7708 0.000155277 99.9983 2.54907e-05C125.225 2.32852e-05 147.983 8.39589 165.576 23.8086C154.901 34.4205 146.992 48.8579 141.978 64.1599C131.853 52.3125 116.804 44.8006 99.9983 44.8006C69.5128 44.8007 44.7991 69.5146 44.7991 100.001C44.7993 130.486 69.5129 155.2 99.9983 155.2C116.776 155.2 131.854 150.336 141.978 138.522C146.97 153.833 155.096 164.712 165.751 175.342C148.172 190.696 125.172 200 99.9983 200Z" fill="url(#paint0_linear_133_3)"/>
<path d="M258.056 0.000610352C313.283 0.000863988 358.054 44.7724 358.054 100.001C358.053 155.229 313.283 199.999 258.056 200C202.828 200 158.057 155.229 158.057 100.001C158.057 44.7722 202.828 0.00061518 258.056 0.000610352ZM258.056 44.8004C227.57 44.8004 202.856 69.5145 202.856 100.001C202.857 130.486 227.57 155.2 258.056 155.2C288.541 155.2 313.254 130.486 313.254 100.001C313.254 69.5147 288.541 44.8007 258.056 44.8004Z" fill="url(#paint1_linear_133_3)"/>
<defs>
<linearGradient id="paint0_linear_133_3" x1="167.027" y1="117.6" x2="33.7248" y2="44.0503" gradientUnits="userSpaceOnUse">
<stop stop-color="#0052CC"/>
<stop offset="1" stop-color="#26C5FF"/>
</linearGradient>
<linearGradient id="paint1_linear_133_3" x1="168.457" y1="20.8008" x2="358.213" y2="191.549" gradientUnits="userSpaceOnUse">
<stop stop-color="#2A86FF"/>
<stop offset="1" stop-color="#111A9B"/>
</linearGradient>
</defs>
</svg>
