<svg width="364" height="200" viewBox="0 0 364 200" fill="none" xmlns="http://www.w3.org/2000/svg">
<path d="M101.499 200C45.4429 200 0.000265677 155.229 5.45357e-05 100.001C4.96351e-05 44.7723 45.4428 0.000155277 101.499 2.54907e-05C127.105 2.32852e-05 150.204 8.39589 168.061 23.8086C157.226 34.4205 149.198 48.8579 144.109 64.1599C133.833 52.3125 118.557 44.8006 101.499 44.8006C70.5562 44.8007 45.4716 69.5146 45.4716 100.001C45.4718 130.486 70.5563 155.2 101.499 155.2C118.529 155.2 133.833 150.336 144.109 138.522C149.176 153.833 157.424 164.712 168.239 175.342C150.397 190.696 127.051 200 101.499 200Z" fill="white"/>
<path d="M261.926 0.00038147C317.983 0.000376642 363.426 44.772 363.426 100C363.426 155.229 317.982 200 261.926 200C205.869 200 160.427 155.229 160.427 100C160.427 44.7721 205.869 0.000511537 261.926 0.00038147ZM261.926 44.8002C230.983 44.8003 205.898 69.5144 205.898 100C205.899 130.486 230.983 155.199 261.926 155.2C292.869 155.2 317.954 130.486 317.954 100C317.954 69.5143 292.869 44.8002 261.926 44.8002Z" fill="white"/>
</svg>
